<?xml version="1.0" standalone="no"?>
<!DOCTYPE svg PUBLIC "-//W3C//DTD SVG 20010904//EN"
 "http://www.w3.org/TR/2001/REC-SVG-20010904/DTD/svg10.dtd">
<svg version="1.0" xmlns="http://www.w3.org/2000/svg"
 width="900.000000pt" height="490.000000pt" viewBox="0 0 900.000000 490.000000"
 preserveAspectRatio="xMidYMid meet">

<g transform="translate(0.000000,490.000000) scale(0.100000,-0.100000)"
fill="#000000" stroke="none">
<path d="M4335 4494 c-506 -53 -937 -258 -1270 -605 -295 -306 -476 -674 -542
-1094 -20 -134 -23 -429 -5 -560 29 -206 107 -456 197 -635 160 -318 429 -611
738 -802 223 -139 511 -242 782 -280 116 -16 414 -16 530 0 726 101 1331 578
1600 1262 43 111 87 274 112 415 23 139 23 471 0 610 -75 431 -246 776 -537
1078 -304 318 -688 519 -1130 592 -92 15 -394 27 -475 19z m-568 -1643 l303
-474 0 477 0 476 70 0 70 0 0 -570 0 -570 -87 0 -88 0 -300 466 c-165 256
-303 473 -307 483 -4 9 -7 -201 -7 -466 l-1 -483 -70 0 -70 0 0 570 0 571 92
-3 93 -3 302 -474z m1311 417 l-3 -63 -217 -3 -218 -2 0 -185 0 -185 205 0
205 0 0 -60 0 -60 -205 0 -205 0 0 -200 0 -200 235 0 235 0 0 -60 0 -60 -305
0 -305 0 0 570 0 570 290 0 291 0 -3 -62z m922 -3 l0 -65 -165 0 -165 0 0
-505 0 -505 -70 0 -70 0 0 505 0 505 -160 0 -160 0 0 65 0 65 395 0 395 0 0
-65z m-2975 -940 c56 -56 16 -155 -62 -155 -46 0 -93 46 -93 90 0 76 102 119
155 65z m1089 -415 c20 -7 26 -16 26 -41 0 -28 -2 -31 -22 -24 -104 31 -146
29 -215 -11 -116 -67 -126 -277 -18 -360 47 -36 131 -44 201 -20 26 9 49 14
52 12 2 -3 0 -17 -5 -33 -12 -36 -56 -52 -144 -52 -153 -2 -249 102 -249 268
1 110 53 201 142 245 42 21 66 26 129 26 43 0 89 -4 103 -10z m359 -144 c113
-47 142 -222 54 -323 -57 -65 -143 -81 -224 -42 -112 54 -135 239 -40 330 49
48 143 63 210 35z m692 -12 c38 -25 65 -85 65 -144 l0 -50 -130 0 c-144 0
-145 0 -114 -65 26 -55 116 -75 184 -40 38 20 40 19 40 -10 0 -35 -39 -56
-114 -62 -86 -7 -135 19 -171 91 -72 144 25 318 167 302 26 -3 59 -13 73 -22z
m-427 -10 c3 -22 3 -22 27 2 18 17 35 24 65 24 39 0 40 -1 40 -34 0 -30 -2
-33 -25 -28 -42 7 -74 -6 -91 -40 -13 -25 -16 -58 -15 -155 l2 -123 -36 0 -35
0 0 191 0 190 33 -3 c24 -2 33 -8 35 -24z"/>
<path d="M4325 1698 c-72 -57 -72 -197 0 -244 36 -24 109 -23 136 2 49 44 64
129 35 199 -26 62 -117 85 -171 43z"/>
<path d="M5033 1710 c-21 -8 -63 -64 -63 -82 0 -5 45 -8 100 -8 55 0 100 2
100 5 0 3 -6 21 -14 40 -22 51 -67 67 -123 45z"/>
</g>
</svg>
