<?xml version="1.0" standalone="no"?>
<!DOCTYPE svg PUBLIC "-//W3C//DTD SVG 20010904//EN"
 "http://www.w3.org/TR/2001/REC-SVG-20010904/DTD/svg10.dtd">
<svg version="1.0" xmlns="http://www.w3.org/2000/svg"
 width="500.000000pt" height="500.000000pt" viewBox="0 0 500.000000 500.000000"
 preserveAspectRatio="xMidYMid meet">
<metadata>
Created by potrace 1.16, written by Peter Selinger 2001-2019
</metadata>
<g transform="translate(0.000000,500.000000) scale(0.100000,-0.100000)"
fill="#000000" stroke="none">
<path d="M3379 3383 c-132 -170 -321 -417 -418 -550 -97 -133 -178 -242 -181
-242 -3 0 -83 110 -179 244 l-175 245 -39 0 c-29 0 -38 -4 -34 -14 3 -7 88
-127 188 -267 101 -140 183 -261 183 -269 0 -8 -91 -140 -202 -292 -111 -153
-202 -280 -202 -283 0 -4 19 -5 42 -3 l43 3 185 257 c102 141 187 257 190 257
3 0 88 -117 190 -259 l185 -259 43 -1 c23 0 42 2 42 5 0 3 -92 133 -205 290
l-206 285 377 547 c207 302 388 563 401 581 13 17 22 32 19 32 -3 0 -114 -138
-247 -307z"/>
<path d="M590 2515 l0 -565 35 0 35 0 0 443 c0 243 3 472 6 509 l7 67 361
-527 c305 -444 804 -1132 822 -1132 3 0 -262 398 -587 885 l-593 885 -43 0
-43 0 0 -565z"/>
<path d="M1530 2515 l0 -565 380 0 380 0 0 35 0 35 -345 0 -345 0 0 240 0 240
320 0 320 0 0 35 0 35 -320 0 -320 0 0 220 0 220 340 0 340 0 0 35 0 35 -375
0 -375 0 0 -565z"/>
<path d="M3270 3045 l0 -35 195 0 195 0 0 -530 0 -530 35 0 35 0 0 530 0 530
200 0 200 0 0 35 0 35 -430 0 -430 0 0 -35z"/>
<path d="M4288 2178 c-3 -98 -4 -103 -26 -106 -13 -2 -25 3 -28 12 -3 9 -17
16 -30 16 -27 0 -28 -3 -13 -33 16 -30 28 -37 69 -37 66 0 80 28 80 154 0 95
0 96 -25 96 -24 0 -24 -1 -27 -102z"/>
<path d="M4410 2260 c-24 -24 -26 -72 -5 -94 9 -9 35 -21 58 -27 23 -7 48 -17
55 -24 17 -15 6 -42 -20 -48 -24 -7 -68 8 -68 23 0 5 -11 10 -25 10 -32 0 -32
-14 0 -45 34 -35 112 -35 143 -2 25 26 28 64 10 90 -7 9 -38 25 -68 34 -64 21
-78 47 -34 63 23 9 33 7 55 -10 53 -39 79 -19 34 25 -32 33 -105 35 -135 5z"/>
</g>
</svg>
