<svg width="46" height="44" viewBox="0 0 46 44" fill="none" xmlns="http://www.w3.org/2000/svg">
<path d="M18.3205 0C8.20235 0 0 7.79253 0 17.4051C0 27.0178 8.20235 34.8103 18.3205 34.8103C22.5953 34.8103 26.5263 33.4195 29.6426 31.0906L41.6434 42.4918C41.8459 42.6842 42.0864 42.8368 42.351 42.941C42.6157 43.0451 42.8993 43.0987 43.1858 43.0987C43.4722 43.0987 43.7559 43.0451 44.0205 42.941C44.2852 42.8368 44.5256 42.6842 44.7282 42.4918C44.9307 42.2993 45.0914 42.0709 45.201 41.8194C45.3106 41.568 45.3671 41.2985 45.3671 41.0264C45.3671 40.7543 45.3106 40.4848 45.201 40.2334C45.0914 39.9819 44.9307 39.7535 44.7282 39.5611L32.7256 28.1599C35.2678 25.0958 36.6473 21.3065 36.641 17.4051C36.641 7.79253 28.4386 0 18.3205 0ZM4.36202 17.4051C4.36202 13.8881 5.83264 10.5151 8.45037 8.02816C11.0681 5.54122 14.6185 4.14408 18.3205 4.14408C22.0225 4.14408 25.5729 5.54122 28.1906 8.02816C30.8083 10.5151 32.279 13.8881 32.279 17.4051C32.279 20.9222 30.8083 24.2952 28.1906 26.7821C25.5729 29.2691 22.0225 30.6662 18.3205 30.6662C14.6185 30.6662 11.0681 29.2691 8.45037 26.7821C5.83264 24.2952 4.36202 20.9222 4.36202 17.4051Z" fill="#C1C1C1"/>
<path d="M19.9668 25.0564C19.8648 25.1585 19.7237 25.2217 19.568 25.2215L17.973 25.2215C17.6612 25.2215 17.4087 24.9691 17.4091 24.6577L17.4091 18.8414L11.5928 18.8414C11.281 18.8414 11.0286 18.5889 11.029 18.2775L11.029 16.6825C11.029 16.3706 11.2814 16.1182 11.5928 16.1186L17.4091 16.1186L17.4091 10.3023C17.4087 9.99087 17.6616 9.73803 17.973 9.73843L19.568 9.73843C19.8799 9.73843 20.1323 9.99087 20.1319 10.3023L20.1319 16.1186L25.9482 16.1186C26.2596 16.1182 26.5125 16.371 26.5121 16.6825L26.5121 18.2775C26.5121 18.5893 26.2596 18.8418 25.9482 18.8414L20.1319 18.8414L20.1319 24.6577C20.1319 24.8136 20.0688 24.9544 19.9668 25.0564Z" fill="#C1C1C1"/>
</svg>
